<?xml version="1.0" standalone="no"?>
<!DOCTYPE svg PUBLIC "-//W3C//DTD SVG 20010904//EN"
 "http://www.w3.org/TR/2001/REC-SVG-20010904/DTD/svg10.dtd">
<svg version="1.0" xmlns="http://www.w3.org/2000/svg"
 width="700.000000pt" height="700.000000pt" viewBox="0 0 700.000000 700.000000"
 preserveAspectRatio="xMidYMid meet">
<metadata>
Created by potrace 1.14, written by Peter Selinger 2001-2017
</metadata>
<g transform="translate(0.000000,700.000000) scale(0.100000,-0.100000)"
fill="#000000" stroke="none">
<path d="M2252 6112 c-218 -64 -279 -336 -112 -493 83 -78 93 -79 618 -79
l452 0 0 -290 0 -290 -37 0 c-21 0 -366 -1 -768 -1 -744 -1 -762 -1 -910 -39
-238 -61 -474 -283 -564 -530 -52 -144 -54 -167 -55 -697 -1 -259 -4 -474 -7
-477 -2 -3 -79 -6 -169 -7 -187 -1 -236 -13 -308 -74 -118 -102 -131 -297 -26
-411 37 -40 99 -79 144 -89 19 -5 107 -10 195 -11 88 -1 162 -2 165 -3 3 -1 5
-211 6 -469 1 -491 3 -534 36 -647 97 -334 383 -578 728 -622 69 -9 3634 -9
3715 -1 33 4 72 11 87 17 14 5 28 8 30 6 7 -7 155 52 206 82 180 104 320 267
390 454 51 137 55 181 57 694 2 264 3 482 4 485 0 3 72 5 159 4 209 -1 268 17
345 100 64 69 92 194 62 279 -31 90 -110 168 -196 193 -22 7 -111 13 -202 14
-88 0 -164 3 -167 6 -2 3 -5 218 -6 477 0 260 -4 492 -8 517 -28 157 -76 273
-161 390 -133 180 -334 306 -554 347 -20 4 -380 8 -801 9 -421 2 -775 3 -787
4 l-23 0 0 466 c0 458 0 466 -22 517 -38 88 -113 154 -198 173 -19 4 -313 8
-653 8 -490 1 -628 -2 -665 -12z m3109 -1759 c88 -39 157 -123 174 -210 7 -37
7 -2419 0 -2458 -9 -44 -55 -123 -88 -151 -16 -14 -48 -35 -71 -47 l-41 -22
-1814 -3 c-1168 -1 -1826 1 -1850 8 -92 25 -177 110 -202 205 -17 60 -14 2443
2 2493 33 101 111 174 209 196 34 8 579 11 1842 10 l1793 0 46 -21z"/>
<path d="M2539 3487 c-86 -32 -146 -86 -183 -166 -20 -44 -21 -59 -21 -406 0
-356 1 -361 24 -409 68 -145 246 -212 384 -146 76 36 133 100 155 173 17 56
19 95 18 402 -2 320 -3 343 -22 386 -48 105 -138 168 -253 175 -41 3 -80 -1
-102 -9z"/>
<path d="M4303 3491 c-82 -21 -158 -87 -197 -171 -20 -43 -21 -61 -20 -405 0
-341 1 -362 21 -405 51 -113 164 -182 285 -175 106 7 199 71 248 170 l25 50 0
360 0 360 -28 57 c-48 97 -137 158 -242 164 -33 2 -74 -1 -92 -5z"/>
</g>
</svg>
